<svg xmlns="http://www.w3.org/2000/svg" width="400.408" height="52.5" viewBox="0 0 400.408 52.5">
  <g id="Group_3" data-name="Group 3" transform="translate(-49 -786)">
    <path id="Icon_simple-php" data-name="Icon simple-php" d="M29.15,27.324H25.225L23.083,38.335h3.485a8.432,8.432,0,0,0,5.165-1.306,6.935,6.935,0,0,0,2.287-4.362q.574-2.932-.516-4.138c-.728-.8-2.175-1.206-4.354-1.206ZM49.9,8.532C22.343,8.532,0,20.284,0,34.78S22.343,61.032,49.9,61.032,99.8,49.276,99.8,34.78,77.459,8.532,49.9,8.532ZM36.345,39.516a10.092,10.092,0,0,1-3.813,2.291,17.768,17.768,0,0,1-5.344.682H22.277l-1.36,6.99h-5.73L20.3,23.174h11.02q4.971,0,7.252,2.611t1.372,7.286a11.463,11.463,0,0,1-3.6,6.446ZM53.078,42.49,55.336,30.85c.262-1.322.162-2.229-.283-2.707s-1.4-.724-2.857-.724H47.655L44.728,42.494H39.039l5.115-26.31h5.685l-1.36,6.994h5.065q4.784,0,6.6,1.668t1.094,5.4L58.854,42.49H53.078Zm31.591-9.419A11.569,11.569,0,0,1,83.4,36.593a11.876,11.876,0,0,1-2.333,2.923,10.147,10.147,0,0,1-3.813,2.291,17.778,17.778,0,0,1-5.348.682H67l-1.36,6.994H59.91l5.115-26.306H76.041q4.971,0,7.252,2.611t1.376,7.281ZM73.878,27.324H69.957L67.811,38.335H71.3a8.415,8.415,0,0,0,5.165-1.306,6.957,6.957,0,0,0,2.291-4.362c.383-1.954.2-3.335-.52-4.138s-2.179-1.206-4.354-1.206Z" transform="translate(49 777.468)"/>
    <path id="Icon_simple-adobexd" data-name="Icon simple-adobexd" d="M44.311.45H9.535A9.527,9.527,0,0,0,0,9.985V43.415A9.527,9.527,0,0,0,9.535,52.95H44.311a9.527,9.527,0,0,0,9.535-9.535V9.985A9.527,9.527,0,0,0,44.311.45ZM51.58,42.54a8.129,8.129,0,0,1-8.122,8.167H10.388a8.158,8.158,0,0,1-8.144-8.144V10.838a8.158,8.158,0,0,1,8.144-8.144H43.436a8.144,8.144,0,0,1,8.144,8.144ZM21.292,25.017l6.282,12.071c.112.179.045.359-.135.359h-3.9a.44.44,0,0,1-.471-.292c-1.436-2.962-2.894-5.923-4.4-9.109h-.045c-1.346,3.006-2.827,6.17-4.263,9.131a.431.431,0,0,1-.4.247h-3.7c-.224,0-.247-.179-.135-.314L16.266,25.4,10.321,13.553a.181.181,0,0,1,.135-.314h3.859a.353.353,0,0,1,.4.247c1.413,2.962,2.849,6.013,4.2,9h.045c1.3-2.962,2.737-6.035,4.128-8.974.112-.179.179-.292.4-.292H27.1c.179,0,.247.135.135.314Zm7.381,3.657c0-5.228,3.478-9.311,9-9.311a9.95,9.95,0,0,1,1.167.045V13.463a.225.225,0,0,1,.224-.224h3.545c.179,0,.224.067.224.179v20.6a15.981,15.981,0,0,0,.112,2.2c0,.135-.045.179-.179.247a13.364,13.364,0,0,1-5.744,1.3C32.151,37.783,28.673,34.777,28.673,28.674Zm10.163-5.744a3.393,3.393,0,0,0-1.3-.224c-2.827,0-4.8,2.176-4.8,5.788,0,4.128,2.019,5.788,4.554,5.788a4.233,4.233,0,0,0,1.548-.247V22.931Z" transform="translate(306.29 785.55)"/>
    <path id="Icon_simple-codeigniter" data-name="Icon simple-codeigniter" d="M17.018,52.492a10.039,10.039,0,0,1-5.956-8.365,11.811,11.811,0,0,1,5.359-9.288,4.269,4.269,0,0,0,.328,3.872,3.555,3.555,0,0,0,3.62,1.413,3.712,3.712,0,0,0,2.572-4.576,3.757,3.757,0,0,0-1.129-1.789,8.223,8.223,0,0,1-2.953-7.516,7.705,7.705,0,0,1,2.4-3.9c-.886,2.362,1.612,4.694,3.29,5.84a87.115,87.115,0,0,1,8.583,5.875A11.561,11.561,0,0,1,37.505,43.9a10.905,10.905,0,0,1-7.4,8.6c7.765-1.728,15.771-7.9,15.924-16.646A18.129,18.129,0,0,0,35.307,19.705h-.284a2.6,2.6,0,0,1,.2,1.085,3.978,3.978,0,0,0,0-.722,3.479,3.479,0,0,1,0,.853,3.713,3.713,0,0,1-6.51,1.439c-2.559-3.281,0-7.015.429-10.624A13.5,13.5,0,0,0,23.552.012c1.872,3.121-.621,7.218-2.435,9.55s-4.44,4.069-6.58,6.1a53.6,53.6,0,0,0-6.315,7.022A21.389,21.389,0,0,0,3.848,40.634,17.076,17.076,0,0,0,17.005,52.512h.035Z" transform="translate(202.839 785.988)"/>
    <path id="Icon_simple-firebase" data-name="Icon simple-firebase" d="M6.027,28.735,10.363.845A.994.994,0,0,1,12.224.53l4.662,8.747ZM36.818,35.5,32.69,9.836A1,1,0,0,0,31.007,9.3L4.972,35.5l14.4,8.118a2.97,2.97,0,0,0,2.91,0ZM25.112,13.1,21.775,6.721a.994.994,0,0,0-1.76,0L5.367,32.971Z" transform="translate(412.59 786)"/>
  </g>
</svg>
