<svg xmlns="http://www.w3.org/2000/svg" width="432.18" height="53.137" viewBox="0 0 432.18 53.137">
  <g id="Group_4" data-name="Group 4" transform="translate(-49 -682)">
    <path id="Icon_awesome-react" data-name="Icon awesome-react" d="M49.005,19.264q-.949-.316-1.9-.6c.105-.434.2-.867.293-1.3,1.441-6.984.492-12.6-2.707-14.448-3.082-1.769-8.109.07-13.195,4.5-.5.434-1,.891-1.465,1.348-.316-.3-.644-.609-.973-.9C23.729,3.128,18.386,1.136,15.187,3c-3.07,1.781-3.984,7.066-2.7,13.675.129.656.27,1.3.434,1.957-.75.211-1.488.445-2.18.691C4.488,21.491,0,24.912,0,28.451,0,32.107,4.781,35.775,11.285,38c.527.176,1.055.352,1.594.5-.176.7-.328,1.394-.469,2.109-1.23,6.5-.27,11.66,2.8,13.429,3.164,1.828,8.484-.047,13.663-4.582.41-.363.82-.738,1.23-1.137.516.5,1.055.984,1.594,1.453,5.015,4.312,9.972,6.058,13.031,4.289,3.164-1.828,4.2-7.371,2.859-14.12q-.158-.773-.352-1.582c.375-.105.738-.223,1.1-.34C55.1,35.787,60,32.166,60,28.451c0-3.551-4.617-7-10.992-9.187ZM33.151,9.315c4.359-3.8,8.425-5.285,10.277-4.219,1.98,1.137,2.742,5.73,1.5,11.765-.082.4-.164.785-.27,1.172a59.988,59.988,0,0,0-7.886-1.242,59.206,59.206,0,0,0-4.992-6.222C32.237,10.136,32.682,9.726,33.151,9.315ZM19.593,34.533c.6,1.019,1.207,2.039,1.851,3.035a53.063,53.063,0,0,1-5.437-.879,54.741,54.741,0,0,1,1.91-5.215c.539,1.031,1.09,2.051,1.676,3.058Zm-3.551-14.1c1.687-.375,3.48-.68,5.343-.914-.621.973-1.23,1.969-1.8,2.976s-1.137,2.016-1.664,3.047c-.738-1.746-1.359-3.457-1.875-5.109Zm3.211,8.074c.773-1.617,1.617-3.2,2.508-4.758s1.851-3.07,2.859-4.558c1.758-.129,3.551-.2,5.379-.2s3.633.07,5.379.2q1.494,2.215,2.848,4.535t2.543,4.734q-1.178,2.426-2.531,4.781c-.891,1.559-1.84,3.07-2.836,4.57-1.746.129-3.562.187-5.4.187s-3.621-.059-5.343-.164q-1.529-2.232-2.883-4.57c-.9-1.559-1.734-3.14-2.519-4.758Zm21.163,6c.6-1.031,1.16-2.074,1.711-3.129a54.4,54.4,0,0,1,1.98,5.191,51.47,51.47,0,0,1-5.508.937C39.232,36.525,39.83,35.517,40.416,34.509ZM42.1,25.545c-.551-1.031-1.113-2.062-1.7-3.07s-1.172-1.98-1.793-2.953a53.925,53.925,0,0,1,5.379.937A51.859,51.859,0,0,1,42.1,25.545ZM30.022,12.362a51.456,51.456,0,0,1,3.469,4.2c-2.32-.105-4.652-.105-6.972,0C27.666,15.046,28.85,13.639,30.022,12.362ZM16.429,5.179c1.969-1.148,6.34.492,10.945,4.57.293.258.586.539.891.82a59.534,59.534,0,0,0-5.027,6.222,61.77,61.77,0,0,0-7.875,1.219c-.152-.6-.281-1.207-.41-1.816-1.1-5.672-.375-9.949,1.476-11.015ZM13.558,36.068c-.492-.141-.973-.293-1.453-.457a23.9,23.9,0,0,1-7.382-3.656,5.258,5.258,0,0,1-2.2-3.5c0-2.144,3.7-4.886,9.046-6.75.668-.234,1.348-.445,2.027-.644a62.311,62.311,0,0,0,2.871,7.453,64.054,64.054,0,0,0-2.906,7.558ZM27.221,47.552a21.448,21.448,0,0,1-6.609,4.136,5.187,5.187,0,0,1-4.136.152c-1.863-1.078-2.637-5.215-1.582-10.781.129-.656.27-1.312.434-1.957a58.622,58.622,0,0,0,7.957,1.148,61.84,61.84,0,0,0,5.062,6.257C27.971,46.872,27.6,47.224,27.221,47.552ZM30.092,44.7c-1.2-1.289-2.39-2.719-3.551-4.254,1.125.047,2.285.07,3.457.07,1.207,0,2.39-.023,3.562-.082A50.536,50.536,0,0,1,30.092,44.7ZM45.408,48.22a5.208,5.208,0,0,1-1.933,3.668c-1.863,1.078-5.836-.328-10.124-4.008-.492-.422-.984-.879-1.488-1.348a57.968,57.968,0,0,0,4.945-6.281,57.765,57.765,0,0,0,7.992-1.23c.117.48.223.961.316,1.43a21.361,21.361,0,0,1,.293,7.769Zm2.133-12.6c-.328.105-.656.211-1,.3a59.528,59.528,0,0,0-2.988-7.476,59.23,59.23,0,0,0,2.871-7.371c.609.176,1.2.363,1.758.551,5.461,1.875,9.292,4.664,9.292,6.8,0,2.3-4.09,5.261-9.937,7.195ZM30,33.865A5.367,5.367,0,1,0,24.631,28.5,5.366,5.366,0,0,0,30,33.865Z" transform="translate(421.183 679.749)"/>
    <path id="Icon_awesome-html5" data-name="Icon awesome-html5" d="M0,2.25,4.09,48.633,22.441,54.75,40.91,48.633,45,2.25ZM36.117,17.238H14.578l.48,5.789H35.637L34.043,40.418,22.57,43.582v.035h-.129l-11.566-3.2-.7-8.883h5.59L16.172,36l6.27,1.7L28.734,36l.7-7.289H9.879l-1.5-17.062H36.633l-.516,5.59Z" transform="translate(49 679.75)"/>
    <path id="Icon_awesome-css3-alt" data-name="Icon awesome-css3-alt" d="M0,2.25,4.139,49.2l18.634,6.191L41.407,49.2,45.546,2.25Zm37.137,9.489-.569,5.61L22.892,23.2l-.036.012H36.081L34.563,40.6,22.915,44,11.2,40.537l-.759-8.765h5.8l.38,4.543,6.239,1.578,6.488-1.827.439-7.306L10.058,28.7v-.012l-.024.012-.427-5.492,13.3-5.539.771-.32H9.1l-.688-5.61Z" transform="translate(138 679.75)"/>
    <path id="Icon_simple-javascript" data-name="Icon simple-javascript" d="M0,0H53.137V53.137H0ZM48.784,40.464C48.4,38.04,46.818,36,42.136,34.1c-1.63-.764-3.441-1.3-3.979-2.524a2.614,2.614,0,0,1-.1-1.561c.332-1.43,2.026-1.86,3.354-1.461a3.6,3.6,0,0,1,2.161,1.993c2.289-1.5,2.289-1.5,3.886-2.491a9.138,9.138,0,0,0-1.3-1.727c-1.395-1.561-3.252-2.358-6.275-2.289l-1.561.2a7.137,7.137,0,0,0-3.786,2.225,6.946,6.946,0,0,0,1.26,9.9c3.022,2.258,7.441,2.754,8.006,4.882.531,2.59-1.926,3.421-4.353,3.122a5.83,5.83,0,0,1-3.886-2.958l-4.052,2.327a8.954,8.954,0,0,0,1.793,2.455c3.852,3.888,13.484,3.689,15.213-2.223a7.494,7.494,0,0,0,.164-3.653l.1.148ZM28.9,24.423H23.918c0,4.291-.02,8.555-.02,12.853,0,2.728.139,5.232-.306,6-.731,1.525-2.613,1.331-3.467,1.063a4.272,4.272,0,0,1-1.838-1.893,1.9,1.9,0,0,0-.281-.434L13.966,44.5A7.831,7.831,0,0,0,16.9,47.863a9.744,9.744,0,0,0,7.1.9,6.219,6.219,0,0,0,4.01-3.124c1.129-2.059.89-4.583.879-7.408.027-4.548,0-9.1,0-13.681l.009-.124Z" transform="translate(227.546 682)"/>
    <path id="Icon_awesome-bootstrap" data-name="Icon awesome-bootstrap" d="M34.254,35.054c0,4.97-4.655,4.855-5.147,4.855H19.628V30.336h9.479c4.987,0,5.147,3.738,5.147,4.718Zm-5.877-8.57c.079,0,4.5.117,4.5-4.255,0-1.819-.411-4.2-4.5-4.2H19.628v8.459ZM52.5,11V46a8.776,8.776,0,0,1-8.75,8.75h-35A8.776,8.776,0,0,1,0,46V11A8.776,8.776,0,0,1,8.75,2.25h35A8.776,8.776,0,0,1,52.5,11ZM39.615,35.749c0-2.528-.779-6.831-5.748-7.893v-.086a6.714,6.714,0,0,0,4.376-6.52c0-.82.234-7.591-9.094-7.591H14.266V44.284c15.027,0,16.391.2,19.172-.669,1.665-.518,6.177-2.107,6.177-7.866Z" transform="translate(324.683 679.75)"/>
  </g>
</svg>
