<svg xmlns="http://www.w3.org/2000/svg" width="59.997" height="52.5" viewBox="0 0 59.997 52.5">
  <path id="Icon_awesome-react" data-name="Icon awesome-react" d="M49.005,19.264q-.949-.316-1.9-.6c.105-.434.2-.867.293-1.3,1.441-6.984.492-12.6-2.707-14.448-3.082-1.769-8.109.07-13.195,4.5-.5.434-1,.891-1.465,1.348-.316-.3-.644-.609-.973-.9C23.729,3.128,18.386,1.136,15.187,3c-3.07,1.781-3.984,7.066-2.7,13.675.129.656.27,1.3.434,1.957-.75.211-1.488.445-2.18.691C4.488,21.491,0,24.912,0,28.451,0,32.107,4.781,35.775,11.285,38c.527.176,1.055.352,1.594.5-.176.7-.328,1.394-.469,2.109-1.23,6.5-.27,11.66,2.8,13.429,3.164,1.828,8.484-.047,13.663-4.582.41-.363.82-.738,1.23-1.137.516.5,1.055.984,1.594,1.453,5.015,4.312,9.972,6.058,13.031,4.289,3.164-1.828,4.2-7.371,2.859-14.12q-.158-.773-.352-1.582c.375-.105.738-.223,1.1-.34C55.1,35.787,60,32.166,60,28.451c0-3.551-4.617-7-10.992-9.187ZM33.151,9.315c4.359-3.8,8.425-5.285,10.277-4.219,1.98,1.137,2.742,5.73,1.5,11.765-.082.4-.164.785-.27,1.172a59.988,59.988,0,0,0-7.886-1.242,59.206,59.206,0,0,0-4.992-6.222C32.237,10.136,32.682,9.726,33.151,9.315ZM19.593,34.533c.6,1.019,1.207,2.039,1.851,3.035a53.063,53.063,0,0,1-5.437-.879,54.741,54.741,0,0,1,1.91-5.215c.539,1.031,1.09,2.051,1.676,3.058Zm-3.551-14.1c1.687-.375,3.48-.68,5.343-.914-.621.973-1.23,1.969-1.8,2.976s-1.137,2.016-1.664,3.047c-.738-1.746-1.359-3.457-1.875-5.109Zm3.211,8.074c.773-1.617,1.617-3.2,2.508-4.758s1.851-3.07,2.859-4.558c1.758-.129,3.551-.2,5.379-.2s3.633.07,5.379.2q1.494,2.215,2.848,4.535t2.543,4.734q-1.178,2.426-2.531,4.781c-.891,1.559-1.84,3.07-2.836,4.57-1.746.129-3.562.187-5.4.187s-3.621-.059-5.343-.164q-1.529-2.232-2.883-4.57c-.9-1.559-1.734-3.14-2.519-4.758Zm21.163,6c.6-1.031,1.16-2.074,1.711-3.129a54.4,54.4,0,0,1,1.98,5.191,51.47,51.47,0,0,1-5.508.937C39.232,36.525,39.83,35.517,40.416,34.509ZM42.1,25.545c-.551-1.031-1.113-2.062-1.7-3.07s-1.172-1.98-1.793-2.953a53.925,53.925,0,0,1,5.379.937A51.859,51.859,0,0,1,42.1,25.545ZM30.022,12.362a51.456,51.456,0,0,1,3.469,4.2c-2.32-.105-4.652-.105-6.972,0C27.666,15.046,28.85,13.639,30.022,12.362ZM16.429,5.179c1.969-1.148,6.34.492,10.945,4.57.293.258.586.539.891.82a59.534,59.534,0,0,0-5.027,6.222,61.77,61.77,0,0,0-7.875,1.219c-.152-.6-.281-1.207-.41-1.816-1.1-5.672-.375-9.949,1.476-11.015ZM13.558,36.068c-.492-.141-.973-.293-1.453-.457a23.9,23.9,0,0,1-7.382-3.656,5.258,5.258,0,0,1-2.2-3.5c0-2.144,3.7-4.886,9.046-6.75.668-.234,1.348-.445,2.027-.644a62.311,62.311,0,0,0,2.871,7.453,64.054,64.054,0,0,0-2.906,7.558ZM27.221,47.552a21.448,21.448,0,0,1-6.609,4.136,5.187,5.187,0,0,1-4.136.152c-1.863-1.078-2.637-5.215-1.582-10.781.129-.656.27-1.312.434-1.957a58.622,58.622,0,0,0,7.957,1.148,61.84,61.84,0,0,0,5.062,6.257C27.971,46.872,27.6,47.224,27.221,47.552ZM30.092,44.7c-1.2-1.289-2.39-2.719-3.551-4.254,1.125.047,2.285.07,3.457.07,1.207,0,2.39-.023,3.562-.082A50.536,50.536,0,0,1,30.092,44.7ZM45.408,48.22a5.208,5.208,0,0,1-1.933,3.668c-1.863,1.078-5.836-.328-10.124-4.008-.492-.422-.984-.879-1.488-1.348a57.968,57.968,0,0,0,4.945-6.281,57.765,57.765,0,0,0,7.992-1.23c.117.48.223.961.316,1.43a21.361,21.361,0,0,1,.293,7.769Zm2.133-12.6c-.328.105-.656.211-1,.3a59.528,59.528,0,0,0-2.988-7.476,59.23,59.23,0,0,0,2.871-7.371c.609.176,1.2.363,1.758.551,5.461,1.875,9.292,4.664,9.292,6.8,0,2.3-4.09,5.261-9.937,7.195ZM30,33.865A5.367,5.367,0,1,0,24.631,28.5,5.366,5.366,0,0,0,30,33.865Z" transform="translate(0 -2.251)"/>
</svg>
