<svg xmlns="http://www.w3.org/2000/svg" width="42.637" height="52.5" viewBox="0 0 42.637 52.5">
  <path id="Icon_simple-codeigniter" data-name="Icon simple-codeigniter" d="M17.018,52.492a10.039,10.039,0,0,1-5.956-8.365,11.811,11.811,0,0,1,5.359-9.288,4.269,4.269,0,0,0,.328,3.872,3.555,3.555,0,0,0,3.62,1.413,3.712,3.712,0,0,0,2.572-4.576,3.757,3.757,0,0,0-1.129-1.789,8.223,8.223,0,0,1-2.953-7.516,7.705,7.705,0,0,1,2.4-3.9c-.886,2.362,1.612,4.694,3.29,5.84a87.115,87.115,0,0,1,8.583,5.875A11.561,11.561,0,0,1,37.505,43.9a10.905,10.905,0,0,1-7.4,8.6c7.765-1.728,15.771-7.9,15.924-16.646A18.129,18.129,0,0,0,35.307,19.705h-.284a2.6,2.6,0,0,1,.2,1.085,3.978,3.978,0,0,0,0-.722,3.479,3.479,0,0,1,0,.853,3.713,3.713,0,0,1-6.51,1.439c-2.559-3.281,0-7.015.429-10.624A13.5,13.5,0,0,0,23.552.012c1.872,3.121-.621,7.218-2.435,9.55s-4.44,4.069-6.58,6.1a53.6,53.6,0,0,0-6.315,7.022A21.389,21.389,0,0,0,3.848,40.634,17.076,17.076,0,0,0,17.005,52.512h.035Z" transform="translate(-3.389 -0.012)"/>
</svg>
