<svg xmlns="http://www.w3.org/2000/svg" width="99.802" height="52.5" viewBox="0 0 99.802 52.5">
  <path id="Icon_simple-php" data-name="Icon simple-php" d="M29.15,27.324H25.225L23.083,38.335h3.485a8.432,8.432,0,0,0,5.165-1.306,6.935,6.935,0,0,0,2.287-4.362q.574-2.932-.516-4.138c-.728-.8-2.175-1.206-4.354-1.206ZM49.9,8.532C22.343,8.532,0,20.284,0,34.78S22.343,61.032,49.9,61.032,99.8,49.276,99.8,34.78,77.459,8.532,49.9,8.532ZM36.345,39.516a10.092,10.092,0,0,1-3.813,2.291,17.768,17.768,0,0,1-5.344.682H22.277l-1.36,6.99h-5.73L20.3,23.174h11.02q4.971,0,7.252,2.611t1.372,7.286a11.463,11.463,0,0,1-3.6,6.446ZM53.078,42.49,55.336,30.85c.262-1.322.162-2.229-.283-2.707s-1.4-.724-2.857-.724H47.655L44.728,42.494H39.039l5.115-26.31h5.685l-1.36,6.994h5.065q4.784,0,6.6,1.668t1.094,5.4L58.854,42.49H53.078Zm31.591-9.419A11.569,11.569,0,0,1,83.4,36.593a11.876,11.876,0,0,1-2.333,2.923,10.147,10.147,0,0,1-3.813,2.291,17.778,17.778,0,0,1-5.348.682H67l-1.36,6.994H59.91l5.115-26.306H76.041q4.971,0,7.252,2.611t1.376,7.281ZM73.878,27.324H69.957L67.811,38.335H71.3a8.415,8.415,0,0,0,5.165-1.306,6.957,6.957,0,0,0,2.291-4.362c.383-1.954.2-3.335-.52-4.138s-2.179-1.206-4.354-1.206Z" transform="translate(0 -8.532)"/>
</svg>
