<svg xmlns="http://www.w3.org/2000/svg" width="52.5" height="52.5" viewBox="0 0 52.5 52.5">
  <path id="Icon_awesome-bootstrap" data-name="Icon awesome-bootstrap" d="M34.254,35.054c0,4.97-4.655,4.855-5.147,4.855H19.628V30.336h9.479c4.987,0,5.147,3.738,5.147,4.718Zm-5.877-8.57c.079,0,4.5.117,4.5-4.255,0-1.819-.411-4.2-4.5-4.2H19.628v8.459ZM52.5,11V46a8.776,8.776,0,0,1-8.75,8.75h-35A8.776,8.776,0,0,1,0,46V11A8.776,8.776,0,0,1,8.75,2.25h35A8.776,8.776,0,0,1,52.5,11ZM39.615,35.749c0-2.528-.779-6.831-5.748-7.893v-.086a6.714,6.714,0,0,0,4.376-6.52c0-.82.234-7.591-9.094-7.591H14.266V44.284c15.027,0,16.391.2,19.172-.669,1.665-.518,6.177-2.107,6.177-7.866Z" transform="translate(0 -2.25)"/>
</svg>
