<svg id="Group_23" data-name="Group 23" xmlns="http://www.w3.org/2000/svg" width="561" height="493" viewBox="0 0 561 493">
  <path id="Path_103" data-name="Path 103" d="M876.03,689.45c-.98,1.37-1.97,2.73-2.95,4.08a16.828,16.828,0,0,1-9.58,2.97h-527a16.9,16.9,0,0,1-9.21-2.72c-.91-1.2-1.81-2.41-2.72-3.62l.91-.5L592.27,541.78a16.019,16.019,0,0,1,15.47-.02L875.13,688.95Z" transform="translate(-319.5 -203.5)" fill="#6c63ff"/>
  <path id="Path_104" data-name="Path 104" d="M863.5,378.5,632.282,244.97a64.023,64.023,0,0,0-63.982-.032L336.5,378.5a17.024,17.024,0,0,0-17,17v284a17.02,17.02,0,0,0,17,17h527a17.029,17.029,0,0,0,17-17v-284A17.024,17.024,0,0,0,863.5,378.5Zm15,301a15.036,15.036,0,0,1-15,15h-527a15.027,15.027,0,0,1-15-15v-284a15.018,15.018,0,0,1,15-15L568.3,246.938a64.023,64.023,0,0,1,63.981.032L863.5,380.5a15.018,15.018,0,0,1,15,15Z" transform="translate(-319.5 -203.5)" fill="#3f3d56"/>
  <path id="Path_105" data-name="Path 105" d="M600.3,539.18a15.362,15.362,0,0,1-5.116-.858l-.3-.107-.061-.672c-.188.093-.379.182-.569.266l-.2.088-.2-.089c-.421-.185-.84-.395-1.244-.622L408.5,433.732V222.5A18.521,18.521,0,0,1,427,204H773a18.521,18.521,0,0,1,18.5,18.5V434l-.255.144L608,537.186a15.757,15.757,0,0,1-7.7,1.995Z" transform="translate(-319.5 -203.5)" fill="#fff"/>
  <path id="Path_106" data-name="Path 106" d="M600.3,539.68a15.857,15.857,0,0,1-5.282-.887l-.605-.213-.026-.286-.337.148-.4-.177c-.437-.192-.87-.409-1.288-.645L408,434.025V222.5a19.022,19.022,0,0,1,19-19H773a19.022,19.022,0,0,1,19,19V434.3L608.24,537.622A16.253,16.253,0,0,1,600.3,539.68Zm-4.013-2.577a14.493,14.493,0,0,0,10.974-1.226L790,433.125V222.5a17.019,17.019,0,0,0-17-17H427a17.019,17.019,0,0,0-17,17V432.854l11.99,6.733,171.35,96.291q.35.2.71.371.36-.174.709-.37l1.347-.759Z" transform="translate(-319.5 -203.5)" fill="#3f3d56"/>
  <path id="Path_107" data-name="Path 107" d="M876.07,385.88l-72.57,40.8L791,433.71,607.75,536.75a15.243,15.243,0,0,1-7.45,1.93,14.91,14.91,0,0,1-4.95-.83,12.059,12.059,0,0,1-1.3-.5q-.615-.27-1.2-.6L421.5,440.46,409,433.44l-84.92-47.72a1.011,1.011,0,0,1-.38-1.37,1,1,0,0,1,1.36-.38L409,431.14l12.5,7.02L593.83,535a13.074,13.074,0,0,0,1.78.83c.26.1.53.19.8.27a13.264,13.264,0,0,0,10.36-1.1L791,431.42l12.5-7.03,71.59-40.25a1,1,0,1,1,.98,1.74Z" transform="translate(-319.5 -203.5)" fill="#3f3d56"/>
  <path id="Path_108" data-name="Path 108" d="M483.575,269.5h-28a8,8,0,1,1,0-16h28a8,8,0,0,1,0,16Z" transform="translate(-319.5 -203.5)" fill="#6c63ff"/>
  <path id="Path_109" data-name="Path 109" d="M516.575,296.5h-61a8,8,0,1,1,0-16h61a8,8,0,0,1,0,16Z" transform="translate(-319.5 -203.5)" fill="#e6e6e6"/>
  <path id="Path_110" data-name="Path 110" d="M687,368.5H514a8,8,0,0,1,0-16H687a8,8,0,0,1,0,16Z" transform="translate(-319.5 -203.5)" fill="#6c63ff"/>
  <path id="Path_111" data-name="Path 111" d="M703,399.5H497a8,8,0,0,1,0-16H703a8,8,0,0,1,0,16Z" transform="translate(-319.5 -203.5)" fill="#e6e6e6"/>
  <path id="Path_112" data-name="Path 112" d="M703,429.5H497a8,8,0,0,1,0-16H703a8,8,0,0,1,0,16Z" transform="translate(-319.5 -203.5)" fill="#e6e6e6"/>
</svg>
