<svg xmlns="http://www.w3.org/2000/svg" width="53.846" height="52.5" viewBox="0 0 53.846 52.5">
  <path id="Icon_simple-adobexd" data-name="Icon simple-adobexd" d="M44.311.45H9.535A9.527,9.527,0,0,0,0,9.985V43.415A9.527,9.527,0,0,0,9.535,52.95H44.311a9.527,9.527,0,0,0,9.535-9.535V9.985A9.527,9.527,0,0,0,44.311.45ZM51.58,42.54a8.129,8.129,0,0,1-8.122,8.167H10.388a8.158,8.158,0,0,1-8.144-8.144V10.838a8.158,8.158,0,0,1,8.144-8.144H43.436a8.144,8.144,0,0,1,8.144,8.144ZM21.292,25.017l6.282,12.071c.112.179.045.359-.135.359h-3.9a.44.44,0,0,1-.471-.292c-1.436-2.962-2.894-5.923-4.4-9.109h-.045c-1.346,3.006-2.827,6.17-4.263,9.131a.431.431,0,0,1-.4.247h-3.7c-.224,0-.247-.179-.135-.314L16.266,25.4,10.321,13.553a.181.181,0,0,1,.135-.314h3.859a.353.353,0,0,1,.4.247c1.413,2.962,2.849,6.013,4.2,9h.045c1.3-2.962,2.737-6.035,4.128-8.974.112-.179.179-.292.4-.292H27.1c.179,0,.247.135.135.314Zm7.381,3.657c0-5.228,3.478-9.311,9-9.311a9.95,9.95,0,0,1,1.167.045V13.463a.225.225,0,0,1,.224-.224h3.545c.179,0,.224.067.224.179v20.6a15.981,15.981,0,0,0,.112,2.2c0,.135-.045.179-.179.247a13.364,13.364,0,0,1-5.744,1.3C32.151,37.783,28.673,34.777,28.673,28.674Zm10.163-5.744a3.393,3.393,0,0,0-1.3-.224c-2.827,0-4.8,2.176-4.8,5.788,0,4.128,2.019,5.788,4.554,5.788a4.233,4.233,0,0,0,1.548-.247V22.931Z" transform="translate(0 -0.45)"/>
</svg>
