<svg xmlns="http://www.w3.org/2000/svg" width="53.137" height="53.137" viewBox="0 0 53.137 53.137">
  <path id="Icon_simple-javascript" data-name="Icon simple-javascript" d="M0,0H53.137V53.137H0ZM48.784,40.464C48.4,38.04,46.818,36,42.136,34.1c-1.63-.764-3.441-1.3-3.979-2.524a2.614,2.614,0,0,1-.1-1.561c.332-1.43,2.026-1.86,3.354-1.461a3.6,3.6,0,0,1,2.161,1.993c2.289-1.5,2.289-1.5,3.886-2.491a9.138,9.138,0,0,0-1.3-1.727c-1.395-1.561-3.252-2.358-6.275-2.289l-1.561.2a7.137,7.137,0,0,0-3.786,2.225,6.946,6.946,0,0,0,1.26,9.9c3.022,2.258,7.441,2.754,8.006,4.882.531,2.59-1.926,3.421-4.353,3.122a5.83,5.83,0,0,1-3.886-2.958l-4.052,2.327a8.954,8.954,0,0,0,1.793,2.455c3.852,3.888,13.484,3.689,15.213-2.223a7.494,7.494,0,0,0,.164-3.653l.1.148ZM28.9,24.423H23.918c0,4.291-.02,8.555-.02,12.853,0,2.728.139,5.232-.306,6-.731,1.525-2.613,1.331-3.467,1.063a4.272,4.272,0,0,1-1.838-1.893,1.9,1.9,0,0,0-.281-.434L13.966,44.5A7.831,7.831,0,0,0,16.9,47.863a9.744,9.744,0,0,0,7.1.9,6.219,6.219,0,0,0,4.01-3.124c1.129-2.059.89-4.583.879-7.408.027-4.548,0-9.1,0-13.681l.009-.124Z"/>
</svg>
