<svg xmlns="http://www.w3.org/2000/svg" width="59.642" height="47.815" viewBox="0 0 59.642 47.815">
  <path id="Icon_awesome-laravel" data-name="Icon awesome-laravel" d="M59.4,24.933c-.391-.524-5.852-8.525-6.811-9.878s-1.435-1.113-2.022-1.015-7.5,1.463-8.3,1.615-1.3.535-.811,1.343c.438.72,4.976,8.263,5.982,9.922L29.391,31.984,15.023,3.878c-.568-.993-.69-1.343-1.994-1.266S1.763,3.649,1.055,3.726s-1.491.437-.783,2.4,12.02,30.518,12.337,31.348a2.366,2.366,0,0,0,3.056,1.637c1.966-.557,8.787-2.641,12.514-3.787,1.966,4.18,5.982,12.65,6.728,13.862.988,1.626,1.677,1.353,3.2.808,1.193-.426,18.6-7.761,19.381-8.132s1.267-.644.736-1.572c-.391-.677-4.985-7.881-7.389-11.657,1.649-.513,7.51-2.336,8.135-2.543.736-.218.839-.633.438-1.157ZM26.586,32.792c-.214.055-10.324,2.892-10.865,3.034s-.54.076-.606-.142S3.1,6.574,2.928,6.214s-.158-.644,0-.644,9.551-.982,9.877-1,.3.065.419.306c0,0,13.25,26.785,13.474,27.255C26.94,32.6,26.8,32.737,26.586,32.792ZM55.1,39.057c.158.295.326.491-.186.7S37.8,46.534,37.479,46.7s-.578.218-.988-.491-5.814-11.657-5.814-11.657L48.269,29.19c.438-.164.578-.273.857.24s5.814,9.332,5.973,9.627ZM56.227,24.42c-.391.1-6.858,1.976-6.858,1.976L44.086,17.9c-.149-.251-.27-.491.1-.546s6.374-1.332,6.644-1.4.5-.164.839.371,4.9,7.313,5.078,7.575-.13.4-.522.513Z" transform="translate(0.006 -2.602)"/>
</svg>
